<svg height="512" viewBox="0 0 512.27 512.27" width="512" xmlns="http://www.w3.org/2000/svg"><path d="M481.565 242.12l-65.56-47.98-2.94-23.35c-5.71-45.38-26.68-85.18-57.1-114.9-1.03-1.01-2.07-2.01-3.12-2.99-35.3-33.01-82.56-52.8-133.27-52.76-8.03.01-16.16.51-24.34 1.54-51.68 6.5-97.73 32.74-129.67 73.89-31.94 41.14-45.95 92.26-39.44 143.94 8.36 66.43 50.18 123.61 110.29 152l-18.43 92.36c-1.61 8.08 3.6 15.95 11.67 17.62l89.92 18.66 56.95 11.81c1.01.21 2.03.31 3.05.31 3.02 0 5.99-.91 8.52-2.66 3.37-2.32 5.65-5.93 6.29-9.98l12.99-81.36h122.2c4.36 0 8.5-1.9 11.35-5.2s4.12-7.67 3.49-11.98l-14.98-101.88 51.26-32.29c4.21-2.65 6.83-7.2 7-12.17.17-4.96-2.12-9.69-6.13-12.63z" fill="#ffe1ba"/><path d="M487.631 254.61c-.17 4.97-2.79 9.52-7 12.17l-51.26 32.29 14.98 101.88c.63 4.31-.64 8.68-3.49 11.98s-6.99 5.2-11.35 5.2h-122.2l-12.99 81.36c-.64 4.05-2.92 7.66-6.29 9.98a14.96 14.96 0 01-8.52 2.66c-1.02 0-2.04-.1-3.05-.31l-56.95-11.81V0c50.71-.04 97.97 19.75 133.27 52.76 1.05.98 2.09 1.98 3.12 2.99 30.42 29.72 51.39 69.52 57.1 114.9l2.94 23.35 65.56 47.98c4.01 2.94 6.3 7.67 6.13 12.63z" fill="#ffbfab"/><path d="M219.575 298.269c-8.284 0-15-6.716-15-15v-90c0-8.284 6.716-15 15-15s15 6.716 15 15v90c0 8.284-6.716 15-15 15z" fill="#5b362a"/><path d="M219.575 178.269v120c8.284 0 15-6.716 15-15v-90c0-8.284-6.716-15-15-15z" fill="#38211a"/><path d="M309.575 88.269c-38.151 0-71.612 20.455-90 50.971-18.388-30.516-51.849-50.971-90-50.971-8.284 0-15 6.716-15 15 0 57.897 47.103 105 105 105s105-47.103 105-105c0-8.284-6.716-15-15-15z" fill="#97de3d"/><path d="M219.575 208.269c57.897 0 105-47.103 105-105 0-8.284-6.716-15-15-15-38.151 0-71.611 20.455-90 50.971z" fill="#59c36a"/></svg>