<svg enable-background="new 0 0 140 140" height="512" viewBox="0 0 140 140" width="512" xmlns="http://www.w3.org/2000/svg"><circle cx="70" cy="70" fill="#e05b49" r="64"/><path d="m29.987236 92.4249878c0 .9799805.3899536 1.8699951 1.0099487 2.5299683v.0100098l.0600586.0599976c.0099487.0100098.0199585.0200195.0299683.0300293l38.9492798 38.9440918c32.3428345-.0181885 59.0582962-24.0317383 63.3465042-55.2001953l-49.835762-50.0538902-.3099976-.3099976h-.0100098c-2.5100098-2.3800049-6.2200317-3.9000244-10.3599854-3.9000244-7.5800171 0-13.7200317 5.0499878-13.7200317 11.2800293 0 2.6099854 1.0900269 4.9899902 2.8900146 6.8899536l-.0100098.0200195.1799927.1799927c.0900269.0900269.1900024.1699829.2800293.2600098l1.9400024 1.8900146-2.2000122 5.2099609-7.6000366-7.6099854c-.0899658-.0800171-.1599731-.1599731-.2399902-.2399902l-.4099731-.4000244v.0100098c-2.1099854-1.9500122-3.9500122-2.2299805-7.0700073-.9400024 0 0-.4199829-.8899536-2.1900024 0-1.7800293.8900146-4.6500244 5.9500122-5.0700073 8.460022s-1.1500244 5.539978-.9899902 7.3599854c.1500244 1.8300171-1.25 5.1699829-.0200195 7.9899864.9800415 2.2700195.8699951 3.5100098.7900391 3.9200439l-4.0400391 2.2099609c-1.0100098.5499878-1.9299927 1.2700195-2.7000122 2.1300049-1.7399902 1.9100342-2.6999512 4.4000244-2.6999512 6.9899902v12.2800292z" opacity=".1"/><path d="m44.43507 56.096867h10.107072v23.378779h-10.107072z" fill="#f7be56"/><path d="m57.6354713 94.3844986v-26.6223068l-2.5849228-1.010849-1.7674103 5.3397141c-1.0979271 3.5226364-7.6154137 2.8179703-8.3187866-.0834274l-1.0546455-5.2562866-1.2236366.2746124v27.3585434h14.9494018z" fill="#ebf0f3"/><path d="m66.291893 73.1535568c-.7770157-.8550491-1.6913452-1.5759125-2.705555-2.1313934l-6.5096054-3.5668564-2.0255699-.7052994-.6210136.121727c-.4275055 3.423317-1.1153221 16.17556-4.9412193 27.512764-3.8258553-11.3340836-4.5244293-24.0832291-4.9519386-27.5096436l-1.5717125-.0031204-1.0485191.5741959-6.5283241 3.5762329c-1.0142097.555481-1.9285393 1.2763443-2.7024651 2.1313934-1.7381935 1.9129105-2.699337 4.403183-2.699337 6.9870453v12.2799988c0 2.0438309 1.6568489 3.7006836 3.700676 3.7006836h31.603241c2.0438309 0 3.700676-1.6568527 3.700676-3.7006836v-12.2799988c-.0000002-2.5838623-.9611437-5.0741348-2.6993334-6.9870453z" fill="#44c4a1"/><path d="m57.4262238 75.6438065-.3495064-8.1884995-2.5279732-1.585289s-.0374489.3526306-.1185875 1.0017014c-.4275208 3.4233246-1.1106758 15.2005463-4.936554 26.5377579-3.8258591-11.3340836-4.52911-23.1082001-4.9566307-26.5346298-.0811386-.6490936-.1185875-1.0048294-.1185875-1.0048294l-2.5016289 1.5759201-.0093726.0093688-.3495064 8.1884995 1.4136467 1.4167557-.5211372 2.3872757c1.1577377 5.2488785 7.0418243 15.0756989 7.0418243 15.0756989s5.8837662-9.8268204 7.0415039-15.0756989l-.5211372-2.3872757z" fill="#3ea69b"/><ellipse cx="49.351" cy="56.862" fill="#fcd462" rx="7.907" ry="11.755"/><path d="m45.1302681 46.7767258s5.7446404 5.7968597 10.9670372 7.6247025c0 0-1.6189423-2.4545288-1.8278389-3.5512314 0 0 1.8278389 1.8800621 2.3500786 5.1701736s-.2611198 6.4757767-.9400291 7.4158058c-.6789131.9400291-1.8800659 2.0889626-1.8800659 2.0889626s1.0967064 1.3055954 1.0967064 2.1411819.2088928 2.9245453-2.193409 3.1334381c0 0 1.3055992.1044464 2.7678719-.6266861 0 0-.5744629 2.9767685-2.9245453 3.8645782 0 0 2.5862617-.104454 4.2437859-2.4545288 0 0 2.1026001 4.3345871 0 7.415802 0 0 1.5530777-.4700165 2.3364372-1.6711655 0 0 .7311363 2.6111984-.3655663 3.707901 0 0 2.1411819-1.201149 2.8200951-2.767868 0 0 .6789131.2088928.3655663 1.5144958 0 0 1.253376-3.446785.6266899-6.1624298-.6266899-2.7156525-2.8723183-4.2301483-2.8723183-4.2301483s.4177895-5.8490829 1.3055992-8.355835c.8878059-2.506752.1044464-10.2359047-3.8123512-15.3016319s-5.7446404-6.5279961-10.2881279-4.647934c0 0-.4177933-.8878059-2.193409 0-1.7756157.8878098-4.647934 5.953537-5.0657272 8.4602852-.4177895 2.506752-1.1489258 5.5357437-.9922523 7.3635864.1566696 1.8278389-1.2444458 5.1701736-.0216484 7.9902725 1.2227974 2.8200912.7527809 4.0734711.7527809 4.0734711s-1.8800621 2.8200912-2.3500786 4.7001572-.4700165 1.4100494-.940033 2.506752c-.4700127 1.0967026-.6266861 4.0734711-.6266861 4.0734711l1.4100494-2.7678757s.1566696 3.7079086 1.2533722 4.4912643c0 0 1.305603-2.0367355 1.2011528-3.3423309 0 0 1.5144958 1.8800583 2.1411858 2.3500748 0 0-.2088966-3.6556778-.052227-6.0057602 0 0 1.7233925 3.446785 5.953537 3.2901154 0 0-3.394558-1.6711655-3.2901115-4.0212479s-.313343-6.9980164-.313343-6.9980164l.7311363-2.4023056s-1.4622726-1.7796898-1.9322891-3.709938-1.1489296-2.0346985-.7833595-4.3325539c.3655663-2.2978554.1044464-3.394558.5222397-4.647934s1.7756154-4.2823676 2.8200948-5.3790701z" fill="#3a556a"/><path d="m83.4786377 81.892807-5.186058 1.7407608-4.7849579-1.7407608v-13.5652237h9.9710159z" fill="#f7be56"/><path d="m95.0702438 85.1546783c-.7665863-.8435745-1.6685715-1.5547409-2.6691818-2.1027069l-6.421936-3.5188599-1.0498505-.5756989h-12.8717422l-1.0343323.5664749-6.4403839 3.5280838c-1.0006104.547966-1.9027214 1.2591324-2.6661263 2.1027069-1.7147636 1.8871307-2.6630707 4.3438568-2.6630707 6.8929672v12.1147003c0 2.0162964 1.634594 3.6508865 3.6509514 3.6508865h31.1777878c2.0162354 0 3.6509552-1.6345901 3.6509552-3.6508865v-12.1147001c0-2.5491104-.9483032-5.0058365-2.6630707-6.8929673z" fill="#d5d6db"/><ellipse cx="86.168" cy="66.015" fill="#fcd462" rx="1.97" ry=".945" transform="matrix(.162 -.987 .987 .162 7.098 140.384)"/><ellipse cx="70.97" cy="66.015" fill="#fcd462" rx=".945" ry="1.97" transform="matrix(.997 -.072 .072 .997 -4.541 5.246)"/><path d="m86.0942917 55.7630424c-1.2109604-1.7859001-6.1515121-5.5611839-10.1122055-4.2843018-3.9606934 1.2768135-2.545105 3.6495514-2.545105 3.6495514s-1.3496704-.6836777-2.4832611.0389404c-1.1338425.7225571-1.4837952 3.5501671-.9857178 5.8838387.3550415 1.6627808.9148407 4.5008926 1.2081604 5.9995728l-.034996 1.0355377s-.3428268 2.107605.4406891 3.6478348c.783638 1.5402374 1.51828 2.243515 2.5467529 3.2699509 1.0284805 1.0264435 2.3729324 1.3447113 4.3453903 1.4084625 1.9724503-.0637512 3.3167801-.382019 4.345253-1.4084625 1.0284805-1.0264359 1.7629929-1.7297134 2.5466309-3.2699509.6271133-1.2325287.5334549-2.8104248.4708481-3.3988571.0318146-.3939819.3685303-4.2924423 1.4046402-7.1275024 1.0922317-2.9887162.0636291-3.6587143-1.1470795-5.4446145z" fill="#3a556a"/><g fill="#ebf0f3"><path d="m73.4736633 76.4124603h10.0049744l1.4500351 2.5462723h-12.9050446z"/><path d="m72.866066 24.538784c-7.5754776 0-13.7165222 5.050478-13.7165222 11.2807083 0 3.6530876 2.1207504 6.8910713 5.3947067 8.9526443l-2.3845596 5.6774902 5.3762131-4.2332687c1.63871.5689049 3.4396896.8837852 5.330162.8837852 7.5752335 0 13.7162781-5.0505371 13.7162781-11.2806511 0-6.2302302-6.1410447-11.2807082-13.7162781-11.2807082z"/><path d="m102.9588776 55.3285255c-6.6785278 0-12.0924606 4.4524956-12.0924606 9.9450569 0 3.2205582 1.8696518 6.0751648 4.7559662 7.8926392l-2.1022263 5.0052719 4.7396622-3.732048c1.4446869.5015488 3.0324249.7791443 4.6990585.7791443 6.6783218 0 12.0922546-4.4525452 12.0922546-9.9450073 0-5.4925614-5.4139328-9.945057-12.0922546-9.945057z"/></g><g fill="#3a556a"><path d="m67.2651291 33.1415176c-1.2019806 0-2.1763916.9743614-2.1763916 2.176342 0 1.2019348.974411 2.1763458 2.1763916 2.1763458 1.201889 0 2.1763-.974411 2.1763-2.1763458 0-1.2019805-.974411-2.176342-2.1763-2.176342z"/><path d="m73.081459 33.1415176c-1.2019806 0-2.1763916.9743614-2.1763916 2.176342 0 1.2019348.974411 2.1763458 2.1763916 2.1763458 1.201889 0 2.1763-.974411 2.1763-2.1763458.0000001-1.2019805-.9744109-2.176342-2.1763-2.176342z"/><path d="m78.897789 33.1415176c-1.2019806 0-2.1763916.9743614-2.1763916 2.176342 0 1.2019348.974411 2.1763458 2.1763916 2.1763458 1.201889 0 2.1762924-.974411 2.1762924-2.1763458 0-1.2019805-.9744034-2.176342-2.1762924-2.176342z"/><path d="m97.4786072 62.9382629c-1.2019806 0-2.176384.9743652-2.176384 2.1763458 0 1.2019348.9744034 2.1763458 2.176384 2.1763458 1.201889 0 2.1763-.974411 2.1763-2.1763458 0-1.2019805-.974411-2.1763458-2.1763-2.1763458z"/><path d="m103.2949371 62.9382629c-1.2019806 0-2.176384.9743652-2.176384 2.1763458 0 1.2019348.9744034 2.1763458 2.176384 2.1763458 1.201889 0 2.1763-.974411 2.1763-2.1763458.0000001-1.2019805-.9744109-2.1763458-2.1763-2.1763458z"/><path d="m109.1112671 62.9382629c-1.2019806 0-2.1763916.9743652-2.1763916 2.1763458 0 1.2019348.974411 2.1763458 2.1763916 2.1763458 1.201889 0 2.1763-.974411 2.1763-2.1763458 0-1.2019805-.974411-2.1763458-2.1763-2.1763458z"/></g></svg>